
<svg xmlns="http://www.w3.org/2000/svg" viewBox="0 0 114.8 70" overflow="scroll">
  <path fill="#FF5C6A" d="M41.8 40.7v17.1c-6.9-6.6-11.2-7.2-12.5-14.2-1.8-9.6 12.5-10.2 12.5-2.9z"/>
  <path fill="#FFF" d="M55.1 31h-.3c-.7-.2-7 .1-9.9 4.8-2.4-3.8-7.6-5.2-12-4.1-4.6 1.1-9.4 5.1-8 12.8 1.2 6.4 4.5 9 8.6 12.2 3 2.4 6.8 5.4 10.9 10.8l1.8 2.4v-8.4c.4.3.8.5 1.3.7l.2.1c2.8 1.2 5.7.6 8.1-1.6l.7-.7-2.1-2.3-.7.7c-1.6 1.4-3.3 1.7-5 1-2.3-1-2.4-2.7-2.3-5.7v-.2l18.7-8.1.6-.3v-.7c.1-8.7-5.1-13-10.6-13.4zm-8.6 19.2V41c0-4.4 4-6.9 7.7-6.9h.1c3.7 0 8.1 2.4 8.5 9.1l-16.3 7zm-9.1 2.6c-.2-.2-.4-.3-.6-.5-3.5-2.7-5.6-4.4-6.5-8.8-.1-.3-.1-.7-.1-1v-1.2c0-.2 0-.3.1-.5 0-.1 0-.2.1-.3 0-.1.1-.3.1-.4 0-.1.1-.2.1-.3.1-.1.1-.3.2-.4 0-.1.1-.2.1-.2.1-.1.2-.2.2-.3l.2-.2c.1-.1.2-.2.2-.3l.3-.3.1-.1c1.1-.8 2.5-1.2 3.9-1.2.5 0 1 0 1.4.2.5.1.9.3 1.3.5.9.5 2 1.4 2.1 3v15.2c-1-1.2-2.2-2.1-3.2-2.9zM6.1 28.2h2.7c6.5 0 12.6-.9 14.5-9.4 1-4.6-.2-9.9-3-12.8C16.9 2.4 13 2.4 6.6 2.5H2.2v25.6h1c1 0 1.9 0 2.9.1zm9.2-22c3.4 1.3 4.5 4.5 4.9 6.3.8 3.7-.1 7.9-2.2 10.2-2.5 2.6-5.3 2.6-11 2.5H5.2V5.6h2.7c4-.1 5.6-.1 7.4.6zm10.7 22l.3-.6 2.9-7.2h10.3c1.1 2.6 2.9 7.2 2.9 7.2l.2.6H46L34.4 0 22.6 28.1l3.4.1zm4.5-10.9c.9-2.2 2.7-6.4 3.9-9.3 1.1 2.7 2.9 7 3.9 9.3h-7.8zm20.2 10.8h3.1V5.6h8.6V2.5H42.1v3.1h8.6m9.5 22.5h1.6l.3-.6 2.9-7.2h10.3c1.1 2.6 2.9 7.2 2.9 7.2l.3.6h3.4L70.1 0 58.4 28.1h1.8zm6-10.8c.9-2.2 2.7-6.5 3.9-9.3.4 1 .9 2.2 1.5 3.5 1.3 3 2 4.8 2.4 5.8h-7.8zM20.9 56.6c-.3 0-.6.1-1 .5-3.7 3.3-8.1 3.2-11.1 2-5.2-2.1-6.7-8.7-5.2-13.7.6-2 3.2-8.4 11.5-6.9 1.8.3 2.9.9 4.2 2 .2.2.8.6 1.5.5.7-.1 1.1-.8 1.3-1.1l.4-.7-.6-.5c-6.3-5.2-14.2-3.8-18.2.5C0 43-1.1 50 1.2 55.4c2 4.7 6 7.4 11.2 7.5h.4c3.6 0 6.9-1.4 9.6-4l.8-.7-.9-.8c-.3-.4-.8-.8-1.4-.8zm67.8-20v-1h-3.1v9.8c0 7.5 0 8.2-.5 9.8-1 2.8-3.6 4.6-6.6 4.6-2.3 0-5.3-1.2-6.5-4.6-.6-1.6-.6-2.7-.5-9.8v-9.9h-3.1v1c0 2.3 0 4.5-.1 6.4-.2 10.7-.3 16.6 6.5 19.2 1.2.5 2.5.7 3.7.7 2.8 0 5.5-1.1 7.4-3.2 2.8-3.1 2.8-5.6 2.7-16.1.1-1.9.1-4.2.1-6.9zm23.4 22.9c-2-2.4-5.5-6.5-7.6-9 3.2-.7 5.4-2.7 6.2-5.5.8-2.9-.2-6.2-2.3-7.7-2.6-1.9-5.9-1.8-10.1-1.8h-3.5v27h3.1V50.9h.7c2.2-.1 2.2-.1 5.7 4.1.6.8 1.4 1.7 2.2 2.7 3.9 4.7 3.9 4.7 4.4 4.8.2.1.5.1 1.2.1h2.6l-2.6-3.1zm-4.7-18.8c.9 1.5.5 3.5.1 4.3-1.4 3-5.5 2.9-9.4 2.8H98v-9.2h.8c3.9 0 7.2-.1 8.6 2.1z"/>
</svg>
